<?xml version="1.0" encoding="UTF-8"?>
<svg width="44px" height="60px" viewBox="0 0 44 60" version="1.1" xmlns="http://www.w3.org/2000/svg" xmlns:xlink="http://www.w3.org/1999/xlink">
    <title>Combined Shape</title>
    <g id="Page-1" stroke="none" stroke-width="1" fill="none" fill-rule="evenodd">
        <g id="Desktop-HD" transform="translate(-640.000000, -453.000000)" fill="#000000" fill-rule="nonzero">
            <path d="M647.388283,500.284 C647.935166,500.284 648.471314,500.473613 648.977633,500.831975 C649.374288,501.096411 649.662378,501.551995 649.864495,502.183612 C650.020512,502.671165 650.110798,503.206423 650.136418,503.779834 L650.144039,504.128383 L650.160283,504.656 C650.160283,504.875563 650.117849,505.101874 650.028521,505.353695 C649.933663,505.590841 649.747974,505.765276 649.501652,505.873658 C649.303252,505.960954 649.08802,506.004 648.860283,506.004 C648.621038,506.004 648.39451,505.957927 648.185214,505.864906 C647.930638,505.751761 647.739924,505.577394 647.679536,505.409248 C647.559313,505.208875 647.468946,504.994673 647.40893,504.767946 C647.355792,504.567202 647.29714,504.265562 647.249941,503.934114 C647.235059,503.889467 647.2228,503.834826 647.209619,503.756523 L647.131283,503.229 L646.931472,503.61304 L646.713821,504.048308 C646.578381,504.373363 646.512283,504.681823 646.512283,504.976 C646.512283,505.743356 646.922111,506.490823 647.780811,507.227198 L647.971703,507.384826 L648.045969,507.457809 C648.471923,507.974115 648.688283,508.577301 648.688283,509.248 C648.688283,509.448026 648.659687,509.739707 648.595127,510.177942 C648.334876,511.289926 647.70953,512.018677 646.771395,512.292407 L646.591842,512.338382 C646.197979,512.445799 645.812549,512.5 645.436283,512.5 C644.124588,512.5 643.180645,511.797197 642.655771,510.430452 L642.580189,510.220465 L642.548189,510.076465 L642.536283,509.968 C642.536283,509.618226 642.714665,509.313099 643.024219,509.060567 C643.310849,508.826738 643.621562,508.7 643.948283,508.7 C644.269861,508.7 644.546253,508.846325 644.642114,509.075562 C645.007404,509.64959 645.310931,509.9 645.500283,509.9 C645.529363,509.9 645.567148,509.893332 645.598626,509.883126 C645.813572,509.803516 645.962408,509.709132 646.051994,509.606748 C646.123896,509.524575 646.152283,509.453607 646.152283,509.376 C646.152283,509.297717 646.124894,509.214304 646.060258,509.11735 C645.985162,509.004706 645.867176,508.895938 645.658881,508.763891 L645.124486,508.34641 C645.019534,508.262813 644.935919,508.194669 644.873312,508.141693 C644.738867,508.027932 644.617311,507.896253 644.51693,507.759734 L644.423915,507.622086 C643.981999,507.014452 643.73967,506.299833 643.696101,505.470935 L643.688939,505.190393 L643.724308,504.528684 C643.795622,503.970055 643.964685,503.427276 644.230076,502.90239 C644.487577,502.393111 644.856334,501.844198 645.367104,501.21811 C645.968399,500.604287 646.648193,500.284 647.388283,500.284 Z M653.676283,500.268 C654.278813,500.268 654.785047,500.515492 655.151925,500.990276 C655.495177,501.434484 655.664283,501.984908 655.664283,502.624 C655.664283,502.753874 655.655558,502.88151 655.638946,503.002201 L655.450243,504.045484 L655.25748,505.282199 L655.132283,506.034 L655.415724,506.018187 L655.858848,505.986444 L656.287718,505.950073 L656.574283,505.921 L656.589308,505.737289 L656.733308,504.729289 C656.836907,504.004099 656.888283,503.46465 656.888283,503.12 C656.888283,502.605867 656.793087,502.10133 656.583212,501.545268 C656.541183,501.377155 656.520283,501.265685 656.520283,501.168 C656.520283,500.783688 656.688792,500.46842 657.022258,500.344974 L657.074283,500.329 L657.091482,500.322111 C657.137658,500.305466 657.183318,500.295938 657.237704,500.290572 L657.326983,500.285273 L657.436283,500.284 C657.822254,500.284 658.197797,500.431272 658.566451,500.715029 C658.901612,500.985736 659.166485,501.321672 659.358362,501.71822 C659.5572,502.129151 659.639639,502.541346 659.598743,502.935205 L659.406331,505.241589 C659.347965,505.890243 659.295351,506.418897 659.248433,506.82797 L659.228674,506.995967 C659.153165,507.621011 659.042145,508.38547 658.89569,509.289327 L658.651258,510.758711 L658.607592,511.050279 C658.594766,511.29396 658.564468,511.492583 658.510624,511.654114 C658.441552,511.861331 658.311872,512.039041 658.147748,512.169845 C657.899065,512.38537 657.705076,512.5 657.468283,512.5 C657.368855,512.5 657.27444,512.479133 657.198321,512.45004 L657.128793,512.418673 L656.868279,512.314916 C656.546137,512.146175 656.307551,511.899501 656.169935,511.583793 C656.048187,511.304489 655.992283,510.959197 655.992283,510.544 L655.997276,510.375062 C656.008941,510.147135 656.041088,509.810487 656.094207,509.356673 L656.174097,508.707971 L656.212283,508.468 L656.0226,508.493774 L655.559637,508.569135 L655.094032,508.659386 L654.699283,508.748 L654.68671,508.761547 L654.680659,508.763384 L654.679283,508.758 L654.445049,510.408773 L654.384283,510.912 L654.383309,511.231189 C654.364735,511.528383 654.239949,511.792352 654.022236,512.000994 C653.82629,512.188776 653.583732,512.314097 653.278482,512.381197 C652.952237,512.435571 652.636989,512.356759 652.360465,512.158008 C652.070045,511.949268 651.900332,511.654767 651.881484,511.314639 L651.81096,510.19722 C651.803831,510.054964 651.800283,509.95231 651.800283,509.888 L651.806645,509.631393 C651.827849,509.160873 651.902041,508.475769 652.029016,507.570285 L652.760283,502.608 C652.760283,501.84773 652.800314,501.327321 652.887212,501.030732 C652.990306,500.618355 653.19128,500.325397 653.548403,500.27554 L653.676283,500.268 Z M665.290531,500.286481 L665.454225,500.297156 C666.036048,500.433327 666.465022,500.625066 666.745091,500.897764 C667.048981,501.193657 667.200283,501.587839 667.200283,502.048 C667.200283,502.260629 667.176159,502.501865 667.130885,502.761274 C667.103629,502.945251 667.08092,503.129189 667.062317,503.317936 L667.037437,503.605267 L666.987258,504.070711 L666.859593,505.012319 L666.279452,509.213556 C666.253331,509.350693 666.225206,509.612472 666.196104,509.996447 L666.158229,510.557268 L666.092721,511.275573 C666.051177,511.621771 665.961442,511.898454 665.804283,512.108 C665.606623,512.371547 665.306899,512.5 664.956283,512.5 C664.666789,512.5 664.37757,512.408668 664.103152,512.243788 C663.830139,512.090218 663.633442,511.866075 663.533069,511.583205 C663.452525,511.356218 663.416283,511.076164 663.416283,510.736 C663.416283,510.55578 663.426579,510.364433 663.44642,510.166621 L663.566091,509.163253 C663.625069,508.688241 663.702698,508.098894 663.799021,507.394796 L663.93317,506.426266 L664.094401,505.282019 L664.286563,504.065005 L664.488284,502.818519 C664.550395,502.57895 664.584283,502.201342 664.584755,501.674281 C664.59612,501.412874 664.618938,501.161881 664.655086,500.909801 C664.705096,500.60974 664.893719,500.378077 665.179072,500.305896 L665.290531,500.286481 Z M678.332283,500.284 C678.686194,500.284 679.045721,500.38865 679.415731,500.593324 L679.601633,500.703975 L679.925282,500.920001 C680.150167,501.060554 680.288283,501.284992 680.288283,501.552 C680.288283,501.767045 680.210109,501.968063 680.070959,502.14697 C679.94137,502.313584 679.769706,502.440074 679.586326,502.515869 C679.354765,502.625556 679.086953,502.720778 678.781734,502.802952 L678.182405,502.961178 C677.419912,503.159116 676.805426,503.30454 676.357643,503.392762 L676.274109,503.420835 C676.25557,503.428271 676.246242,503.433148 676.245836,503.433553 L676.239297,503.457493 C676.232962,503.475429 676.223743,503.502053 676.215452,503.533556 C676.077233,504.259205 675.9285,504.944046 675.77049,505.583022 L675.650262,506.053576 L675.410946,507.042713 L674.881086,509.290334 L674.511083,510.785392 L674.426782,511.142499 C674.390074,511.301152 674.361535,511.429937 674.341184,511.528765 C674.292957,511.753823 674.197796,511.956557 674.056905,512.130599 C673.878083,512.351497 673.644625,512.484 673.372283,512.484 C673.228679,512.484 673.096181,512.439834 672.978422,512.369093 C672.631257,512.168806 672.373064,511.93537 672.212393,511.659936 C672.050905,511.383098 671.976283,511.041969 671.976283,510.64 C671.976283,510.381183 671.99207,510.155756 672.024138,509.966741 L672.178901,509.200059 C672.34261,508.352208 672.534439,507.22745 672.753542,505.831281 L672.969283,504.422 L672.858397,504.458342 C672.395392,504.612677 671.992673,504.692 671.644283,504.692 C671.479378,504.692 671.305904,504.671984 671.104095,504.628332 C670.535419,504.482518 670.082598,504.064528 669.741069,503.407607 C669.67738,503.280229 669.640283,503.156571 669.640283,503.024 C669.640283,502.747698 669.781075,502.525437 670.006867,502.378892 L670.108676,502.320786 L670.214283,502.283 L670.25092,502.258903 C670.406862,502.193508 670.564999,502.132598 670.725668,502.076081 L670.968613,501.994588 L671.340706,501.88455 L672.482193,501.583447 C673.418021,501.314531 674.279507,501.088391 675.066879,500.90503 L675.621952,500.780425 C676.109396,500.674672 676.659072,500.564127 677.271155,500.448731 L677.995283,500.314 L678.04285,500.301764 L678.093652,500.293335 L678.214816,500.285196 L678.332283,500.284 Z M657.414361,453.732369 L657.535,453.817592 L657.628519,453.841464 C661.564965,454.837344 665.189748,456.524549 667.346415,458.68149 C669.295602,460.630924 669.997325,462.883213 669.324952,465.243231 C671.214376,465.580726 672.626384,466.524839 673.815815,468.289984 C674.576983,469.419575 674.7379,470.538571 674.494758,471.656895 L674.485283,471.692 L674.558314,471.722231 C674.774644,471.818962 674.985317,471.935768 675.189406,472.072358 L675.391265,472.215532 C678.542298,474.579615 679.42869,477.584872 678.406878,480.483668 C684.581196,482.205744 684.770546,491.178555 677.868962,493.368682 C672.555984,495.054686 664.974669,494.552657 656.193831,492.65042 L655.579281,492.515444 C654.910703,492.366616 654.23297,492.438002 652.53044,492.848967 L650.812953,493.278059 C649.417184,493.619235 648.509661,493.780285 647.478724,493.837722 C646.183678,493.909873 644.989714,493.758779 643.85934,493.33118 C637.567901,490.951251 639.54093,482.577981 645.661327,480.622304 C645.215197,479.473821 645.067984,478.855554 645.009841,477.98367 C644.897756,476.30287 645.515953,474.825342 646.939017,473.534348 L647.465072,473.082236 L647.683912,472.900721 C647.717655,472.87329 647.75055,472.846861 647.783369,472.820825 C648.223159,472.471926 648.64644,472.204069 649.155875,471.971319 L649.315283,471.901 L649.279821,471.783072 C649.187652,471.470018 649.122205,471.187326 649.0836,470.931457 L649.059681,470.744529 C648.705576,467.331278 650.493166,465.013354 653.886491,463.298794 C653.76548,462.40943 654.041862,461.425404 654.58249,460.233194 C654.692368,459.990886 654.812162,459.743544 654.949351,459.473428 L655.150745,459.084973 C655.308496,458.787252 655.714064,458.024652 655.811642,457.828378 L655.918426,457.604903 L655.955283,457.52 L655.934791,457.428691 C655.910511,457.329799 655.875245,457.212639 655.828428,457.077782 L655.689797,456.709896 L655.389532,455.987235 C655.314075,455.804945 655.255588,455.657411 655.203684,455.515613 C654.918918,454.737667 655.31872,453.876169 656.096666,453.591404 C656.55129,453.42499 657.034447,453.492363 657.414361,453.732369 Z M658.959097,457.356138 L658.971999,457.530614 C658.993723,457.997674 658.876133,458.374078 658.606317,458.941579 L658.415439,459.325636 C658.209067,459.7245 657.788247,460.513882 657.753365,460.580856 L657.513278,461.053413 C657.440782,461.200556 657.375204,461.33873 657.314698,461.472159 C657.071697,462.008034 656.940428,462.42419 656.884278,462.660924 L656.864283,462.751 L656.919545,462.760054 C657.222614,462.798575 657.682286,462.774762 658.293603,462.668626 L658.529945,462.624927 C658.711867,462.589328 658.891192,462.520482 659.282392,462.334231 L659.794106,462.089327 C659.924102,462.028918 660.028402,461.983428 660.151586,461.93319 C660.918673,461.62035 661.794127,461.988591 662.106966,462.755678 C662.419806,463.522765 662.051566,464.398219 661.284479,464.711059 L661.104573,464.788821 L660.306553,465.167029 C659.842053,465.378663 659.529268,465.486275 659.106072,465.569088 C657.854785,465.813945 656.800794,465.848736 655.967433,465.631826 C653.087072,466.905076 651.827074,468.347204 652.043666,470.434958 C652.075216,470.73907 652.274145,471.369564 652.642934,472.252826 C652.992742,473.090625 652.523931,474.044678 651.646972,474.279658 L651.277543,474.383891 C651.162369,474.418236 651.054936,474.45223 650.954562,474.486018 C650.42973,474.662686 650.122028,474.817382 649.791588,475.060922 L649.573209,475.231089 L649.09634,475.632263 C647.732817,476.786004 647.648177,477.511906 648.723725,480.188104 C651.79459,480.044453 654.085025,479.796696 655.569672,479.455959 C657.864106,478.929369 660.977595,477.678321 664.878336,475.701946 C665.617322,475.327526 666.519917,475.623066 666.894337,476.362053 C667.268756,477.101039 666.973217,478.003634 666.23423,478.378054 L665.22562,478.88182 C661.586731,480.672223 658.599938,481.838487 656.240747,482.379939 C654.455809,482.789595 651.826768,483.062488 648.283818,483.211426 C643.219,483.295607 641.280436,489.14816 644.920776,490.52523 C645.630554,490.793726 646.411361,490.892535 647.311844,490.842367 C648.187098,490.793604 649.014072,490.637248 650.437525,490.28035 L651.692473,489.964668 C653.919319,489.418565 654.858567,489.30801 656.071278,489.553136 L657.390123,489.838196 C665.450907,491.535464 672.397061,491.957687 676.961545,490.509207 C681.259081,489.145441 680.929192,483.724457 676.822365,483.233122 C675.075733,485.214339 670.230864,487.177501 661.952827,489.446635 C661.153873,489.66564 660.328653,489.195499 660.109648,488.396544 C659.890643,487.59759 660.360784,486.77237 661.159739,486.553365 L662.068627,486.301269 C669.368772,484.252034 673.664636,482.441073 674.623638,481.188695 C676.411282,478.854177 676.260498,476.618142 673.590871,474.615237 C673.350292,474.434741 673.128251,474.362097 672.865358,474.378817 L672.730232,474.394538 C672.369454,474.454194 671.999311,474.380004 671.689391,474.185919 C671.027369,473.771331 670.882369,473.138256 670.989463,472.556861 C671.012121,472.433851 671.042315,472.330045 671.082658,472.222967 L671.151112,472.057086 C671.173054,472.007336 671.347571,471.639684 671.394318,471.529922 C671.659245,470.90787 671.669625,470.4735 671.327936,469.966426 C670.434866,468.641088 669.529519,468.155343 667.861814,468.100266 C667.480954,468.613899 667.037266,469.128116 666.528114,469.641818 C665.462956,470.716495 663.953608,471.520556 661.729466,472.351218 L660.96124,472.629498 C660.488115,472.796088 657.884265,473.660031 657.280873,473.885277 C656.50476,474.175001 655.640729,473.780704 655.351005,473.004591 C655.061282,472.228477 655.455579,471.364446 656.231692,471.074723 L657.036153,470.791691 C658.080059,470.433261 659.645802,469.912136 659.964879,469.799786 C662.206942,469.010341 663.630951,468.303232 664.397377,467.529956 C667.120311,464.782687 667.170296,462.748258 665.224961,460.802676 C663.868268,459.445811 661.581846,458.235549 658.959097,457.356138 Z" id="Combined-Shape"></path>
        </g>
    </g>
</svg>